<!-- <svg width="27" height="27" viewBox="0 0 27 27" fill="none" xmlns="http://www.w3.org/2000/svg">
<path opacity="0.4" d="M20.212 7.37784L18.1533 5.31909C16.4152 3.58097 15.5467 2.71134 14.4183 2.38847C13.2899 2.06447 12.0918 2.34122 9.69665 2.89472L8.31515 3.21309C6.29915 3.67772 5.29115 3.91059 4.6004 4.60022C3.91078 5.29097 3.6779 6.29897 3.21328 8.31497L2.89378 9.69647C2.3414 12.0927 2.06465 13.2897 2.38753 14.4181C2.71153 15.5465 3.58115 16.415 5.31928 18.1531L7.37803 20.2118C10.4043 23.2392 11.9163 24.7501 13.795 24.7501C15.6749 24.7501 17.1869 23.237 20.212 20.2118C23.2394 17.1867 24.7503 15.6747 24.7503 13.7948C24.7503 11.9161 23.2372 10.403 20.212 7.37784Z" fill="#E43030"/>
<path d="M12.5405 16.1191C11.7834 15.3631 11.7902 14.2763 12.2424 13.4157C12.1302 13.2536 12.0783 13.0573 12.0957 12.8609C12.1131 12.6645 12.1988 12.4803 12.3378 12.3405C12.4768 12.2007 12.6604 12.114 12.8567 12.0954C13.0531 12.0769 13.2497 12.1276 13.4124 12.239C13.7949 12.0365 14.2145 11.9285 14.633 11.933C14.8568 11.935 15.0706 12.0259 15.2274 12.1856C15.3841 12.3454 15.471 12.5608 15.4689 12.7846C15.4668 13.0084 15.3759 13.2221 15.2162 13.3789C15.0565 13.5356 14.8411 13.6225 14.6173 13.6205C14.3568 13.6301 14.1106 13.7421 13.9322 13.9321C13.4968 14.3675 13.6115 14.804 13.733 14.9266C13.8568 15.0492 14.2922 15.1628 14.7275 14.7275C15.6095 13.8455 17.1328 13.553 18.1093 14.5283C18.8664 15.2855 18.8597 16.3722 18.4063 17.2328C18.5178 17.395 18.5692 17.591 18.5514 17.787C18.5337 17.983 18.448 18.1667 18.3092 18.3062C18.1703 18.4457 17.9871 18.5322 17.7912 18.5509C17.5953 18.5696 17.399 18.5192 17.2363 18.4085C16.7314 18.6854 16.1459 18.7776 15.5803 18.6695C15.4717 18.6471 15.3686 18.6037 15.2768 18.5415C15.185 18.4793 15.1064 18.3997 15.0454 18.3071C14.9844 18.2146 14.9422 18.1109 14.9212 18.0021C14.9003 17.8932 14.901 17.7813 14.9233 17.6727C14.9456 17.5641 14.9891 17.461 15.0512 17.3692C15.1134 17.2774 15.193 17.1988 15.2856 17.1378C15.3782 17.0768 15.4818 17.0346 15.5907 17.0136C15.6995 16.9927 15.8115 16.9934 15.92 17.0157C16.1192 17.0573 16.4409 16.9921 16.7165 16.7165C17.153 16.28 17.0383 15.8446 16.9157 15.722C16.793 15.5993 16.3577 15.4857 15.9212 15.9211C15.0392 16.8031 13.5159 17.0956 12.5405 16.1191ZM11.2738 11.5797C11.4887 11.3721 11.6601 11.1239 11.778 10.8494C11.8959 10.5749 11.958 10.2796 11.9606 9.98086C11.9632 9.6821 11.9063 9.38582 11.7931 9.10931C11.68 8.83279 11.5129 8.58157 11.3017 8.37031C11.0904 8.15905 10.8392 7.99199 10.5627 7.87885C10.2862 7.76572 9.9899 7.70879 9.69114 7.71139C9.39239 7.71398 9.09714 7.77605 8.82264 7.89397C8.54813 8.01189 8.29985 8.1833 8.09229 8.3982C7.68244 8.82256 7.45565 9.39091 7.46078 9.98086C7.4659 10.5708 7.70254 11.1351 8.1197 11.5523C8.53687 11.9695 9.1012 12.2061 9.69114 12.2112C10.2811 12.2163 10.8494 11.9896 11.2738 11.5797Z" fill="#E43030"/>
</svg> -->

<svg xmlns="http://www.w3.org/2000/svg" shape-rendering="geometricPrecision" text-rendering="geometricPrecision" image-rendering="optimizeQuality" fill-rule="evenodd" clip-rule="evenodd" viewBox="0 0 479 511.697"><path d="M231.154 99.463L13.525 317.092c-18.033 18.032-18.033 47.777 0 65.81l115.326 115.275c18.038 18.015 47.72 18.038 65.758 0l217.658-217.726a14.367 14.367 0 004.217-9.689c2.086-54.828 6.344-113.439 6.344-167.862-.28-7.957-6.965-14.186-14.921-13.907L241.954 95.24a14.418 14.418 0 00-10.8 4.223zm63.593 72.113c12.532-12.527 32.845-12.527 45.378 0 12.527 12.533 12.527 32.846 0 45.373-12.533 12.533-32.846 12.533-45.378 0-12.528-12.527-12.528-32.84 0-45.373z"/><path fill="#2278D2" d="M23.755 327.322l217.629-217.629 167.03-6.286-6.343 166.848-217.692 217.691c-12.47 12.47-32.879 12.47-45.355 0L23.755 372.672c-12.47-12.47-12.47-32.88 0-45.35zm270.992-155.746c12.532-12.527 32.845-12.527 45.378 0 12.527 12.533 12.527 32.846 0 45.373-12.533 12.533-32.846 12.533-45.378 0-12.528-12.527-12.528-32.84 0-45.373z"/><path fill="#1F6CBD" d="M402.676 254.297l-.606 15.956-217.691 217.691c-6.733 6.733-15.779 9.829-24.642 9.292l242.939-242.939z"/><path fill="#3886D7" d="M23.756 327.321l217.628-217.628 15.548-.585-242.49 242.49c-.43-8.745 2.673-17.636 9.314-24.277z"/><path d="M284.568 161.341a46.9 46.9 0 017.489-6.087c8.964-82.72 43.497-128.258 80.024-146.126 22.905-11.204 46.717-11.672 66.004-3.71 19.697 8.139 34.674 24.952 39.388 48.046 6.605 32.383-7.381 77.3-58.453 127.077l-11.74-12.071c46.29-45.115 59.284-84.247 53.699-111.644-3.522-17.252-14.659-29.796-29.289-35.837-15.046-6.212-33.871-5.734-52.223 3.243-30.799 15.069-60.088 53.699-69.623 124.097a46.469 46.469 0 017.591-.621c11.912 0 23.841 4.548 32.926 13.633l.866.946a46.362 46.362 0 0112.772 31.979c0 11.917-4.554 23.834-13.638 32.919l-.964.878a46.371 46.371 0 01-31.962 12.76c-11.917 0-23.834-4.548-32.924-13.638-9.085-9.085-13.633-21.002-13.633-32.919 0-11.878 4.542-23.772 13.69-32.925zm10.179 10.235c12.532-12.527 32.845-12.527 45.378 0 12.527 12.533 12.527 32.846 0 45.373-12.533 12.533-32.846 12.533-45.378 0-12.528-12.527-12.528-32.84 0-45.373z"/></svg>